HIERARCHY
ROOT Hips
{
  OFFSET -140.559 88.3314 137.845
  CHANNELS 6 Xposition Yposition Zposition Zrotation Xrotation Yrotation
  JOINT ToSpine
  {
    OFFSET -2.69724 7.43032 -0.144315
    CHANNELS 3 Zrotation Xrotation Yrotation
    JOINT Spine
    {
      OFFSET -0.0310711 10.7595 1.96963
      CHANNELS 3 Zrotation Xrotation Yrotation
      JOINT Spine1
      {
        OFFSET 13.1342 3.43533 0.764692
        CHANNELS 3 Zrotation Xrotation Yrotation
        JOINT Neck
        {
          OFFSET 29.8703 7.82586 -0.130764
          CHANNELS 3 Zrotation Xrotation Yrotation
          JOINT Head
          {
            OFFSET 9.52751 0.295786 -0.907742
            CHANNELS 3 Zrotation Xrotation Yrotation
            End Site
            {
              OFFSET 16.4037 0.713936 2.7358
            }
          }
        }
        JOINT LeftShoulder
        {
          OFFSET 27.5574 4.95586 2.47156
          CHANNELS 3 Zrotation Xrotation Yrotation
          JOINT LeftArm
          {
            OFFSET 1.20734 -0.998971 20.1238
            CHANNELS 3 Zrotation Xrotation Yrotation
            JOINT LeftForeArm
            {
              OFFSET 26.8049 -0.0536703 -0.155908
              CHANNELS 3 Zrotation Xrotation Yrotation
              JOINT LeftHand
              {
                OFFSET 26.6817 0 0.320147
                CHANNELS 3 Zrotation Xrotation Yrotation
                End Site
                {
                  OFFSET 18.6119 0 0.382219
                }
              }
            }
          }
        }
        JOINT RightShoulder
        {
          OFFSET 27.5927 4.71444 -2.65209
          CHANNELS 3 Zrotation Xrotation Yrotation
          JOINT RightArm
          {
            OFFSET 2.83739 -1.17114 -18.7564
            CHANNELS 3 Zrotation Xrotation Yrotation
            JOINT RightForeArm
            {
              OFFSET 28.839 -0.0548439 1.22491
              CHANNELS 3 Zrotation Xrotation Yrotation
              JOINT RightHand
              {
                OFFSET 26.5114 0 -0.101894
                CHANNELS 3 Zrotation Xrotation Yrotation
                End Site
                {
                  OFFSET 18.2168 0 0
                }
              }
            }
          }
        }
      }
    }
  }
  JOINT LeftUpLeg
  {
    OFFSET -4.76168 -1.9167 -10.2353
    CHANNELS 3 Zrotation Xrotation Yrotation
    JOINT LeftLeg
    {
      OFFSET 2.55951 -42.0585 -8.02213
      CHANNELS 3 Zrotation Xrotation Yrotation
      JOINT LeftFoot
      {
        OFFSET 3.16357 -42.5282 -3.95426
        CHANNELS 3 Zrotation Xrotation Yrotation
        JOINT LeftToeBase
        {
          OFFSET 0.346054 -6.02161 12.8035
          CHANNELS 3 Zrotation Xrotation Yrotation
          End Site
          {
            OFFSET 0.134235 -1.35082 5.13018
          }
        }
      }
    }
  }
  JOINT RightUpLeg
  {
    OFFSET -4.94151 -1.41743 10.6446
    CHANNELS 3 Zrotation Xrotation Yrotation
    JOINT RightLeg
    {
      OFFSET -2.56294 -42.0364 -7.94377
      CHANNELS 3 Zrotation Xrotation Yrotation
      JOINT RightFoot
      {
        OFFSET -3.0952 -42.555 -4.02241
        CHANNELS 3 Zrotation Xrotation Yrotation
        JOINT RightToeBase
        {
          OFFSET -0.0828122 -6.13587 12.8035
          CHANNELS 3 Zrotation Xrotation Yrotation
          End Site
          {
            OFFSET -0.131328 -1.35082 5.13018
          }
        }
      }
    }
  }
}
MOTION
Frames:	13
Frame Time:	0.0333333
42.4019 97.7041 35.092 -15.4181 -68.8982 -104.151 -70.1915 0 88.8779 67.3611 70.4356 20.561 7.8608 21.2091 -0.0387871 -147.182 38.5259 164.463 -157.773 78.7736 -176.593 0.426617 -13.1107 -31.7449 -83.9739 48.3429 -70.0471 12.0627 18.1651 -34.0072 0.420957 0.000575417 0.35866 -1.84004 5.77727 46.3417 -72.5228 -28.7511 89.8337 10.9034 -16.6489 33.9673 0.58676 0.000331065 0.0646653 -49.902 2.80541 97.3046 -0.82448 28.8448 -15.763 5.19075 -10.2506 -1.10312 -0.146295 0.225271 0.164235 -52.4443 -4.70975 80.0311 2.2521 20.3659 -12.8095 -7.41667 3.33856 1.06471 1.56767 -13.209 0.885767 
42.2881 97.7006 35.2086 -14.625 -68.8741 -103.407 -70.1915 0 88.8779 67.4484 70.5904 20.6435 7.54078 21.3304 0.194266 -147.828 34.3494 165.297 -154.562 74.273 -178.743 0.389334 -13.2635 -31.9143 -84.3649 48.2853 -69.5537 12.0126 18.2461 -33.7784 0.420957 0.000575417 0.35866 -1.82376 5.76927 46.1186 -72.5366 -28.745 89.2737 10.9282 -16.9867 33.5106 0.58676 0.000331065 0.0646653 -49.9017 2.75619 97.3121 -0.748602 28.7626 -16.064 5.19303 -10.2549 -1.10336 -0.248852 0.425263 0.21823 -52.4037 -4.83632 79.9178 2.31093 20.579 -13.2331 -7.42971 2.60082 1.07631 1.3999 -12.3014 1.71697 
42.1425 97.6959 35.322 -13.6908 -69.0495 -102.449 -70.1915 0 88.8779 68.0432 70.7114 20.2904 7.34268 21.4182 0.135242 -148.685 29.6496 166.718 -153.193 69.1982 -179.548 0.444144 -13.0638 -31.4613 -84.3149 48.4088 -69.6575 11.8273 17.9298 -33.8039 0.420957 0.000575417 0.35866 -1.81327 5.71016 46.2657 -71.6935 -28.5868 89.3066 9.62373 -15.2326 32.9192 0.58676 0.000331065 0.0646653 -50.0032 2.70372 97.2138 -0.666178 28.8115 -16.2789 5.0391 -10.4868 -1.10568 -0.323874 0.578208 0.242052 -52.618 -4.82738 79.9087 2.25002 20.6592 -14.0044 -7.40149 2.34211 1.07544 1.3426 -12.2465 2.59901 
42.0668 97.6782 35.3785 -12.5248 -69.1684 -101.345 -70.1915 0 88.8779 68.0061 71.0229 20.2865 7.09549 21.618 0.670984 -148.771 24.4495 167.943 -150.536 63.4644 179.016 0.374848 -13.3432 -31.828 -84.6597 47.8752 -69.6463 11.6435 17.6861 -33.7326 0.420957 0.000575417 0.35866 -1.77505 5.63847 46.0219 -72.2699 -28.5673 88.51 9.42912 -15.1334 32.547 0.58676 0.000331065 0.0646653 -50.0255 2.60057 97.1391 -0.685328 28.8042 -16.8319 5.06803 -10.0756 -1.09215 -0.0731192 -0.0888528 0.529227 -52.6964 -5.04589 79.6579 2.42627 20.8361 -13.5188 -7.85709 2.42041 1.1429 1.49258 -12.8274 1.35674 
41.9517 97.6754 35.5491 -11.1111 -69.4481 -100.044 -70.1915 0 88.8779 67.2817 71.0935 20.9885 7.39456 21.7042 0.893889 -149.447 20.2528 170.481 -152.772 59.2926 -178.028 0.366172 -13.3652 -31.9625 -84.4386 47.5819 -70.1087 11.5598 17.4798 -33.8403 0.420957 0.000575417 0.35866 -1.74487 5.62044 45.6143 -71.7959 -28.9265 88.5902 8.91878 -14.6558 31.9047 0.58676 0.000331065 0.0646653 -50.4111 2.4924 97.3038 -0.704613 28.523 -17.3099 5.24886 -9.98933 -1.09653 -0.0406571 -0.0176158 0.194446 -52.9837 -5.27121 79.4845 2.38819 21.0862 -13.922 -7.49657 1.76395 1.09682 1.46716 -12.5997 1.24243 
41.8278 97.6601 35.646 -9.27495 -69.635 -98.2358 -70.1915 0 88.8779 67.5152 71.1188 20.8994 7.37927 21.7594 0.696531 -149.237 16.0435 171.364 -151.676 54.8253 -178.064 0.426355 -13.1538 -31.4233 -84.987 47.5666 -70.0154 11.7423 17.364 -34.4401 0.420957 0.000575417 0.35866 -1.75133 5.59302 45.8729 -72.0777 -28.8863 88.1393 8.94504 -14.8677 31.6295 0.58676 0.000331065 0.0646653 -50.5033 2.51581 97.5104 -0.81373 28.491 -18.1017 5.08525 -10.1503 -1.09549 -0.271334 0.249754 0.737802 -53.2375 -5.41884 79.3389 2.437 21.1558 -14.3179 -7.88564 1.69558 1.15376 1.51624 -12.9349 1.18003 
41.7807 97.6202 35.6744 -7.4443 -69.5905 -96.4466 -70.1915 0 88.8779 67.1144 71.0468 21.573 7.48359 21.8112 0.46845 -149.501 12.4884 173.05 -152.906 51.2616 -176.729 0.444483 -13.0726 -31.38 -85.3118 47.078 -69.8392 11.1245 15.89 -35.2827 0.420957 0.000575417 0.35866 -1.76898 5.63086 45.9621 -72.0013 -28.7266 87.9276 8.91501 -15.0452 31.2519 0.58676 0.000331065 0.0646653 -50.3018 2.26378 97.2569 -0.686221 28.4648 -18.0702 4.9425 -10.2696 -1.09418 -0.299484 0.631205 0.000557333 -53.2652 -5.57153 79.2838 2.48114 21.0784 -15.2137 -8.57914 1.48156 1.25439 1.51323 -13.1188 1.76511 
41.6886 97.6624 35.7711 -5.81173 -69.6144 -94.8964 -70.1915 0 88.8779 66.8387 71.1149 21.9367 7.4039 21.9161 0.5455 -149.711 10.0888 174.727 -154.114 48.8985 -175.412 0.402992 -13.2294 -31.6898 -85.8812 46.5854 -69.4816 11.3717 15.8343 -35.9871 0.420957 0.000575417 0.35866 -1.71993 5.56171 45.5133 -71.8021 -29.1531 88.0481 8.7444 -15.0428 30.7567 0.58676 0.000331065 0.0646653 -50.497 2.18315 97.5061 -0.702564 27.973 -18.6116 4.84678 -10.1185 -1.08483 -0.292605 0.667304 -0.115193 -53.5125 -5.72444 79.2366 2.46141 20.9577 -15.4478 -7.23695 0.879956 1.07217 1.39407 -12.1451 1.43241 
41.5563 97.6466 35.829 -4.60176 -69.6063 -93.6737 -70.1915 0 88.8779 66.7316 71.1008 22.1965 7.42404 22.0055 0.183352 -149.464 8.45729 175.147 -154.415 47.3037 -174.671 0.460734 -13.0038 -31.3076 -86.7042 46.5061 -69.1981 11.6271 15.9148 -36.4746 0.420957 0.000575417 0.35866 -1.73225 5.57602 45.6438 -71.972 -29.2424 87.9966 9.9249 -17.1127 30.8071 0.58676 0.000331065 0.0646653 -50.4531 2.15934 97.5431 -0.570874 27.9146 -19.5106 5.0518 -9.69923 -1.07811 -0.0988328 -0.148098 0.802316 -53.9126 -5.62681 79.3878 2.49564 20.3034 -16.5241 -7.65712 0.65898 1.13224 1.31043 -12.06 2.67423 
41.4466 97.6083 35.8809 -3.75124 -69.7407 -92.8012 -70.1915 0 88.8779 67.2668 71.2759 21.7381 7.29752 22.1568 0.068037 -149.477 7.80064 175.606 -154.79 46.7154 -173.826 0.516207 -12.768 -31.0388 -86.0134 46.6015 -69.9798 11.5309 15.3979 -37.1315 0.420957 0.000575417 0.35866 -1.76431 5.66647 45.6904 -71.8963 -29.2273 87.9761 10.0022 -17.4024 30.5959 0.58676 0.000331065 0.0646653 -50.5498 2.34757 97.5975 -0.752013 28.0678 -19.7423 5.42082 -10.0263 -1.10479 -0.123842 -0.0514433 0.699967 -54.1842 -5.53841 79.423 2.44356 20.2351 -16.8546 -7.21836 0.115531 1.08093 1.26272 -11.6211 2.3847 
41.344 97.5482 35.8608 -2.94871 -69.7801 -92.1028 -70.1915 0 88.8779 68.192 71.4831 20.8009 6.96118 22.3277 -0.0917408 -149.645 7.83972 175.693 -155.291 46.8525 -173.111 0.489203 -12.9029 -31.0107 -87.761 46.3136 -68.5062 12.8781 16.4999 -38.4028 0.420957 0.000575417 0.35866 -1.81083 5.7869 45.8128 -72.4566 -29.2814 87.6618 10.6701 -18.477 30.7827 0.58676 0.000331065 0.0646653 -50.4771 2.07583 96.9754 -0.67723 28.2966 -19.3451 4.98777 -10.8737 -1.11782 -0.674702 0.823167 1.40543 -54.2305 -5.56157 79.443 2.39941 20.2911 -16.6262 -7.38264 -0.463622 1.11016 1.25839 -11.0408 1.18062 
41.2838 97.4449 35.8664 -2.89404 -69.8361 -92.1489 -70.1915 0 88.8779 68.742 71.7157 20.0514 6.66288 22.4604 0.113525 -149.773 8.71758 175.62 -155.915 47.8026 -172.856 0.491269 -12.8777 -31.1354 -86.9944 46.2556 -68.9763 12.9166 16.2672 -38.8783 0.420957 0.000575417 0.35866 -1.82219 5.82213 45.8113 -72.6825 -29.1434 87.6652 10.3031 -17.7007 30.9309 0.58676 0.000331065 0.0646653 -50.3473 1.79306 96.2484 -0.608861 28.7265 -18.4368 4.12235 -11.8252 -1.13094 -1.00648 1.42518 1.63448 -54.2768 -5.65241 79.39 2.40336 20.4153 -17.1652 -7.47518 -1.15489 1.13053 1.16612 -10.9354 2.3276 
41.189 97.3852 35.8639 -3.58316 -70.0195 -93.0056 -70.1915 0 88.8779 71.0978 72.2648 17.4964 5.69681 22.7659 0.31612 -149.859 10.4633 175.334 -157.173 49.7204 -172.01 0.502772 -12.8325 -31.0465 -86.1957 46.4465 -69.3779 13.0628 16.2532 -39.2295 0.420957 0.000575417 0.35866 -1.66177 5.54397 44.618 -71.6144 -29.6855 89.3714 9.33514 -16.7134 29.8439 0.58676 0.000331065 0.0646653 -50.4178 1.49623 95.5661 -0.5699 29.152 -17.7818 3.82471 -12.2167 -1.14189 -0.329083 -0.541037 2.95014 -54.192 -5.66999 79.3995 2.21765 20.9533 -16.4321 -6.72868 -2.15026 1.06016 1.06859 -9.78184 1.43188 
